<?xml version="1.0" encoding="UTF-8"?>
<svg width="279px" height="51px" viewBox="0 0 279 51" version="1.1" xmlns="http://www.w3.org/2000/svg" xmlns:xlink="http://www.w3.org/1999/xlink">
    <title>Johnson &amp; Johnson</title>
    <g id="Home-Mobile" stroke="none" stroke-width="1" fill="none" fill-rule="evenodd" transform="translate(-236.000000, -3627.000000)">
        <g id="FOOTER" transform="translate(0.000000, 3580.000000)" fill="#FFFFFF">
            <g id="LOGO" transform="translate(236.000000, 47.000000)">
                <path d="M101.521802,18.4625049 C101.521802,18.0081514 101.830733,17.7501943 102.232394,17.7501943 C102.89092,17.7501943 103.906478,18.4625049 104.466572,19.892111 C104.264997,19.892111 103.960776,19.943204 103.753747,19.943204 C102.539343,19.943204 101.521802,19.3774429 101.521802,18.4625049 Z M28.1618908,18.4625049 C28.1618908,18.0081514 28.4646242,17.7501943 28.8705002,17.7501943 C29.5275383,17.7501943 30.4895411,18.4625049 31.0508748,19.892111 C29.1762088,19.892111 28.1618908,19.4818719 28.1618908,18.4625049 Z M42.3134989,11.1180783 C42.3134989,3.52192526 43.7810491,2.35027636 44.239984,2.35027636 C45.051736,2.35027636 45.1563662,2.85572285 45.1563662,5.76702488 C45.1563662,8.77353428 43.886919,12.6957293 42.3134989,14.8438769 L42.3134989,11.1180783 Z M93.8143733,18.6187746 C92.9488186,19.8430119 92.2394654,21.576185 92.2394654,23.8177953 C92.2394654,28.1023765 94.6710021,32.1815889 99.3867998,32.1815889 C103.960776,32.1815889 107.153238,28.5624624 107.153238,23.5112375 C107.153238,22.0360216 107.103154,21.8299051 107.00621,21.2187834 C108.066149,20.7601929 108.981539,20.0463868 109.690892,19.4818719 C110.303053,19.0227829 110.75579,18.7675673 111.111582,18.7675673 C111.572748,18.7675673 111.772835,19.1257165 111.772835,19.7891774 L111.772835,29.7837089 C111.772835,31.4159422 112.280614,32.1815889 113.545846,32.1815889 C114.714134,32.1815889 115.529605,31.3626061 115.984325,30.3978214 C117.656921,26.8753977 120.090441,22.1883036 121.156826,20.4060315 C121.412947,19.989063 121.615017,19.6852468 121.76378,19.6852468 C121.966099,19.6852468 122.069985,19.8430119 122.069985,20.5034819 L122.069985,28.4600273 C122.069985,30.7051269 123.084799,32.1815889 125.316001,32.1815889 C127.653321,32.1815889 128.817642,29.938234 130.850741,26.4713894 C130.9519,26.2612852 131,26.1127417 131,25.9599613 C131,25.4998754 130.595364,25.2444106 130.192215,25.2444106 C129.735512,25.2444106 129.475176,25.7087335 127.958038,27.3885704 C127.653321,27.6971221 127.351331,28.1517248 126.787766,28.1517248 C126.588423,28.1517248 126.432222,27.8992508 126.432222,27.5906992 L126.432222,18.6643845 C126.432222,16.265009 125.365589,15.300972 123.999198,15.300972 C122.883968,15.300972 121.966099,15.7595625 121.002856,17.1871747 C119.279929,19.7358413 117.502703,23.3584571 116.540948,25.1955607 C116.434086,25.3974402 116.286315,25.7087335 116.183172,25.7087335 C116.08474,25.7087335 116.03664,25.551716 116.03664,25.1955607 L116.03664,18.6643845 C116.03664,16.7761879 115.529605,15.300972 113.545846,15.300972 C111.465143,15.300972 110.400245,16.7305781 108.879636,17.7965518 C107.917633,18.5138471 107.052326,19.0227829 106.398512,19.3290915 C105.379731,16.7305781 103.506057,15.4026595 101.929661,15.4537524 C100.349794,15.5058423 99.2382844,16.4711255 99.2382844,18.1041065 C99.2382844,19.7891774 100.256321,20.9578355 101.623704,21.4747467 C102.385869,21.7780645 103.094726,21.8299051 104.108796,21.8299051 C104.41624,21.8299051 104.719717,21.8299051 104.922779,21.7780645 C105.023195,22.2899911 104.976582,23.001554 104.976582,23.5645736 C104.976582,26.0648888 103.506057,28.5624624 100.763604,28.5624624 C97.921233,28.5624624 96.2466538,25.8069316 96.2466538,22.6461464 C96.2466538,20.2502602 96.9545193,18.2606254 98.1208238,16.8821123 C98.5812464,16.3751704 98.9340634,16.0673665 98.9340634,15.6017974 C98.9340634,15.3523142 98.5812464,15.300972 98.2762815,15.300972 C96.3478128,15.300972 94.2162822,16.164817 92.7479881,16.929716 C90.8165441,17.9535692 88.5350105,19.6368954 86.6553858,21.3189755 C85.7444583,19.2799924 84.6284853,17.4907417 84.0703749,16.1144717 C83.8673129,15.5526983 83.7140867,14.8944714 83.311434,14.8944714 C82.9529143,14.8944714 82.7989443,15.2521222 82.5497657,15.9594482 C81.6348712,18.6643845 76.762872,26.5725784 75.6977265,27.6425398 C75.594584,27.7953203 75.4473083,27.9468545 75.4004478,27.9468545 C75.2896191,27.9468545 75.2400313,27.8992508 75.2400313,27.5906992 L75.2400313,18.6643845 C75.2400313,16.265009 74.2740614,15.300972 72.9577539,15.300972 C71.8455,15.300972 70.8787863,15.7595625 69.9698423,17.1871747 C68.2930316,19.7358413 66.2604286,23.4643815 65.2959463,25.2965005 C65.1424721,25.6020613 64.9904856,25.7087335 64.9428813,25.7087335 C64.8905662,25.7087335 64.8419702,25.4998754 64.8419702,25.1955607 L64.8419702,18.6643845 C64.8419702,16.265009 63.8779838,15.300972 62.5547339,15.300972 C61.4422321,15.300972 60.3778305,15.7092173 59.5150031,17.1871747 C57.3807452,20.8100397 53.8324917,26.3706989 53.1734702,27.2863845 C53.0680961,27.4376695 52.9676809,27.5428463 52.8692491,27.5906992 C52.7653627,27.5906992 52.715775,27.4895102 52.715775,27.23579 L52.715775,18.6643845 C52.715775,16.265009 51.7505489,15.300972 50.4349851,15.300972 C48.6084193,15.300972 47.595589,16.9837998 46.9316086,18.0545089 C46.01721,19.5324664 44.8020615,21.5235966 43.8375792,23.3584571 C43.17707,24.587679 42.6189596,25.7087335 42.4139141,25.7087335 C42.3134989,25.7087335 42.3134989,25.2444106 42.3134989,24.3765779 L42.3134989,17.5468193 C45.5086873,13.9745488 47.4917026,9.59027401 47.4917026,4.79725549 C47.4917026,2.03698925 46.2718432,0.507191133 44.3969293,0.507191133 C40.8898337,0.507191133 38.2073829,6.0202466 38.2073829,12.5461889 L38.2073829,17.8516325 C36.5821435,18.8719964 35.0580631,19.3774429 33.1819095,19.7358413 C32.2159396,16.8821123 30.1875516,15.4026595 28.5657833,15.4537524 C26.9963301,15.5058423 25.8791175,16.4711255 25.8791175,18.1041065 C25.8791175,20.8100397 28.5156996,21.9315926 30.8465731,21.9315926 L31.5070823,21.9315926 C31.6062579,22.4412761 31.6062579,23.001554 31.6062579,23.5645736 C31.6062579,26.0648888 30.1357323,28.5624624 27.4031978,28.5624624 C24.5566115,28.5624624 22.8832719,25.8069316 22.8832719,22.6461464 C22.8832719,20.2502602 23.5898977,18.2606254 24.757442,16.8821123 C25.2171207,16.3751704 25.5744006,15.9123429 25.5744006,15.6017974 C25.5744006,15.3523142 25.2171207,15.300972 24.9131476,15.300972 C22.9836871,15.300972 18.7221135,17.9037224 13.6490359,23.001554 C13.1915886,18.9208462 12.686785,14.9455644 12.686785,11.0697269 C12.686785,6.73380346 13.5451495,3.05909777 13.7509388,1.98913633 C13.8493705,1.32816784 13.9063964,0.919174889 13.9063964,0.611620167 C13.9063964,0.199885646 13.6939128,0 13.1434885,0 C9.03241375,0 0,6.57877993 0,16.4177894 C0,23.4083039 2.53666278,26.7729625 6.95245441,31.1103813 C4.26430096,35.4460555 2.13351415,40.5982202 2.13351415,45.1863684 C2.13351415,48.4984386 2.89518241,51 5.32597529,51 C10.4030199,51 14.2051628,40.3906083 14.2051628,32.5377443 C14.2051628,30.1961911 14.1059873,27.8459148 13.9063964,25.4998754 C15.7793268,23.5112375 18.6717819,20.8100397 19.3826227,20.5583134 C19.0776579,21.6240379 18.8748439,22.7485816 18.8748439,23.8177953 C18.8748439,28.1023765 21.3138187,32.1815889 26.0303602,32.1815889 C30.441441,32.1815889 33.7908475,28.5624624 33.7908475,23.5112375 C33.7908475,22.850269 33.739772,22.2899911 33.6874569,21.6778724 C35.3107129,21.37281 36.7871889,20.9578355 38.2073829,20.0927444 L38.2073829,30.3447346 C38.2073829,31.6738993 39.1210377,32.1815889 39.9823774,32.1815889 C41.1521531,32.1815889 41.756876,31.3626061 42.6189596,29.4808896 C43.3302962,27.9468545 45.2528144,24.4314093 46.4230859,22.3398379 C47.3402119,20.7056107 47.8467511,19.6368954 48.2533708,19.6368954 C48.3510588,19.6368954 48.4534575,19.892111 48.4534575,20.5034819 L48.4534575,29.2241786 C48.4534575,31.5647349 49.6705895,32.1815889 50.73152,32.1815889 C51.7505489,32.1815889 52.4110581,31.6220587 53.0680961,30.7051269 C55.7088932,26.9287337 58.5024207,22.4412761 59.6134349,20.5034819 C59.8184803,20.1480743 60.0723698,19.892111 60.2746879,19.892111 C60.4775019,19.892111 60.5774213,19.989063 60.5774213,20.6555147 L60.5774213,29.7837089 C60.5774213,31.4159422 61.0886713,32.1815889 62.3601019,32.1815889 C63.5214477,32.1815889 64.2811324,31.3626061 64.7365962,30.3978214 C66.4146466,26.8753977 68.8977545,22.2354088 69.9698423,20.4060315 C70.2217482,19.989063 70.4753897,19.6368954 70.6268804,19.6368954 C70.8299423,19.6368954 70.8787863,19.892111 70.8787863,20.5583134 L70.8787863,29.2241786 C70.8787863,31.5647349 72.0964142,32.1815889 73.1665184,32.1815889 C74.5767948,32.1815889 75.4954084,31.1607266 76.4075756,29.9885792 C78.0824028,27.7953203 80.515923,23.8726268 81.9904156,21.37281 C82.4989382,22.1883036 83.0563048,23.1553314 83.5130083,24.2277852 C82.2946366,25.7087335 81.0752731,27.3885704 81.0752731,29.1708426 C81.0752731,31.0570453 82.3935642,32.1815889 83.7621869,32.1815889 C86.1007465,32.1815889 88.2302936,29.938234 88.2302936,26.827794 C88.2302936,25.6020613 87.8752451,24.3239895 87.4197814,23.1019953 C89.5004845,21.0637599 91.9821049,19.0738759 93.8143733,18.6187746 Z M10.2460746,29.7361052 C10.6521985,32.4370538 11.0097264,35.088654 11.0097264,37.1792285 C11.0097264,42.0761776 9.38622255,47.7863772 6.59616622,47.7327919 C5.52829342,47.7327919 4.61736594,46.6615842 4.56703435,44.7771262 C4.46736291,38.6574352 7.35634686,33.4549253 10.2460746,29.7361052 Z M84.3227767,26.2612852 C84.6284853,27.1306133 84.7804719,27.8459148 84.7804719,28.5624624 C84.7804719,29.3784545 84.4777385,30.1961911 83.9161569,30.1961911 C83.5130083,30.1961911 83.1058926,29.7361052 83.1058926,29.0180621 C83.1058926,28.2554062 83.7621869,27.0309197 84.3227767,26.2612852 Z M12.0741281,1.93804337 C12.0741281,2.24584732 11.3655187,3.67420722 10.4538474,6.22187688 C9.48787749,8.87372634 8.57422268,12.6451348 8.57422268,17.1871747 C8.57422268,19.892111 9.23745921,23.4643815 9.79556965,27.0827603 L8.1688426,29.2760193 C5.58259204,26.1127417 3.96032788,22.5417174 3.96032788,16.4177894 C3.96032788,7.75466581 9.1831606,1.74040083 11.8732975,1.74040083 C12.0267717,1.74040083 12.0741281,1.78576141 12.0741281,1.93804337 Z" id="Fill-1"></path>
                <path d="M249.54028,18.4625049 C249.54028,18.0081514 249.841357,17.7501943 250.247254,17.7501943 C250.909376,17.7501943 251.921392,18.4625049 252.480677,19.892111 C252.281445,19.892111 251.975908,19.943204 251.766764,19.943204 C250.552544,19.943204 249.54028,19.3774429 249.54028,18.4625049 Z M176.214731,18.4625049 C176.214731,18.0081514 176.522747,17.7501943 176.924183,17.7501943 C177.586553,17.7501943 178.551239,18.4625049 179.106311,19.892111 C177.229721,19.892111 176.214731,19.4818719 176.214731,18.4625049 Z M190.36858,11.1180783 C190.36858,3.52192526 191.835309,2.35027636 192.291261,2.35027636 C193.104046,2.35027636 193.202918,2.85572285 193.202918,5.76702488 C193.202918,8.77353428 191.938394,12.6957293 190.36858,14.8438769 L190.36858,11.1180783 Z M158.319844,29.7361052 C158.721528,32.4370538 159.08406,35.088654 159.08406,37.1792285 C159.08406,42.0761776 157.462456,47.7863772 154.668509,47.7327919 C153.603464,47.7327919 152.694285,46.6615842 152.63853,44.7771262 C152.538171,38.6574352 155.431238,33.4549253 158.319844,29.7361052 Z M232.354101,26.2612852 C232.656418,27.1306133 232.80708,27.8459148 232.80708,28.5624624 C232.80708,29.3784545 232.500056,30.1961911 231.946718,30.1961911 C231.540821,30.1961911 231.132447,29.7361052 231.132447,29.0180621 C231.132447,28.2554062 231.79333,27.0309197 232.354101,26.2612852 Z M160.139441,1.93804337 C160.139441,2.24584732 159.433954,3.67420722 158.519323,6.22187688 C157.55439,8.87372634 156.645459,12.6451348 156.645459,17.1871747 C156.645459,19.892111 157.312041,23.4643815 157.866866,27.0827603 L156.244022,29.2760193 C153.657732,26.1127417 152.030677,22.5417174 152.030677,16.4177894 C152.030677,7.75466581 157.259012,1.74040083 159.938475,1.74040083 C160.090376,1.74040083 160.139441,1.78576141 160.139441,1.93804337 Z M151.682022,27.4376695 C152.589714,28.6646484 153.703575,29.8355496 155.025341,31.1103813 C152.340179,35.4460555 150.212567,40.5982202 150.212567,45.1863684 C150.212567,48.4984386 150.96811,51 153.402498,51 C158.469268,51 162.276717,40.3906083 162.276717,32.5377443 C162.276717,30.1961911 162.172145,27.8459148 161.968701,25.4998754 C163.846531,23.5112375 166.735385,20.8100397 167.442111,20.5583134 C167.141034,21.6240379 166.934864,22.7485816 166.934864,23.8177953 C166.934864,28.1023765 169.37297,32.1815889 174.087119,32.1815889 C178.499697,32.1815889 181.844503,28.5624624 181.844503,23.5112375 C181.844503,22.850269 181.799899,22.2899911 181.743896,21.6778724 C183.366987,21.37281 184.844867,20.9578355 186.255593,20.0927444 L186.255593,30.3447346 C186.255593,31.6738993 187.168985,32.1815889 188.029099,32.1815889 C189.204415,32.1815889 189.808056,31.3626061 190.669905,29.4808896 C191.379357,27.9468545 193.306003,24.4314093 194.478841,22.3398379 C195.389259,20.7056107 195.894028,19.6368954 196.302402,19.6368954 C196.402761,19.6368954 196.498908,19.892111 196.498908,20.5034819 L196.498908,29.2241786 C196.498908,31.5647349 197.716102,32.1815889 198.781147,32.1815889 C199.796384,32.1815889 200.45578,31.6220587 201.116663,30.7051269 C203.754496,26.9287337 206.542743,22.4412761 207.656852,20.5034819 C207.86327,20.1480743 208.114044,19.892111 208.318974,19.892111 C208.518454,19.892111 208.623025,19.989063 208.623025,20.6555147 L208.623025,29.7837089 C208.623025,31.4159422 209.132007,32.1815889 210.389345,32.1815889 C211.559209,32.1815889 212.320451,31.3626061 212.779129,30.3978214 C214.44955,26.8753977 216.933746,22.2354088 217.996313,20.4060315 C218.250061,19.989063 218.508021,19.6368954 218.666861,19.6368954 C218.86634,19.6368954 218.917882,19.892111 218.917882,20.5583134 L218.917882,29.2241786 C218.917882,31.5647349 220.13359,32.1815889 221.191944,32.1815889 C222.616795,32.1815889 223.526965,31.1607266 224.441843,29.9885792 C226.107555,27.7953203 228.544918,23.8726268 230.018585,21.37281 C230.527319,22.1883036 231.080904,23.1553314 231.540821,24.2277852 C230.323875,25.7087335 229.110893,27.3885704 229.110893,29.1708426 C229.110893,31.0570453 230.418534,32.1815889 231.79333,32.1815889 C234.125872,32.1815889 236.253484,29.938234 236.253484,26.827794 C236.253484,25.6020613 235.900617,24.3239895 235.442187,23.1019953 C237.519247,21.0637599 240.006665,19.0738759 241.834439,18.6187746 C240.967139,19.8430119 240.264625,21.576185 240.264625,23.8177953 C240.264625,28.1023765 242.693314,32.1815889 247.409695,32.1815889 C251.975908,32.1815889 255.164352,28.5624624 255.164352,23.5112375 C255.164352,22.0360216 255.114297,21.8299051 255.017902,21.2187834 C256.080469,20.7601929 256.996586,20.0463868 257.702073,19.4818719 C258.305715,19.0227829 258.776783,18.7675673 259.125685,18.7675673 C259.580151,18.7675673 259.787807,19.1257165 259.787807,19.7891774 L259.787807,29.7837089 C259.787807,31.4159422 260.292576,32.1815889 261.559826,32.1815889 C262.72523,32.1815889 263.53405,31.3626061 263.99248,30.3978214 C265.660175,26.8753977 268.098776,22.1883036 269.163821,20.4060315 C269.414595,19.989063 269.621012,19.6852468 269.768949,19.6852468 C269.972393,19.6852468 270.079938,19.8430119 270.079938,20.5034819 L270.079938,28.4600273 C270.079938,30.7051269 271.087741,32.1815889 273.318438,32.1815889 C275.653955,32.1815889 276.820846,29.938234 278.852063,26.4713894 C278.952422,26.2612852 279,26.1127417 279,25.9599613 C279,25.4998754 278.588652,25.2444106 278.19118,25.2444106 C277.731263,25.2444106 277.480242,25.7087335 275.955032,27.3885704 C275.653955,27.6971221 275.349904,28.1517248 274.790867,28.1517248 C274.588662,28.1517248 274.438247,27.8992508 274.438247,27.5906992 L274.438247,18.6643845 C274.438247,16.265009 273.374441,15.300972 272.006584,15.300972 C270.882811,15.300972 269.972393,15.7595625 269.010433,17.1871747 C267.284257,19.7358413 265.510751,23.3584571 264.550278,25.1955607 C264.448432,25.3974402 264.299504,25.7087335 264.193446,25.7087335 C264.084662,25.7087335 264.042783,25.551716 264.042783,25.1955607 L264.042783,18.6643845 C264.042783,16.7761879 263.53405,15.300972 261.559826,15.300972 C259.478057,15.300972 258.41326,16.7305781 256.894741,17.7965518 C255.925842,18.5138471 255.06548,19.0227829 254.410049,19.3290915 C253.39382,16.7305781 251.515991,15.4026595 249.947416,15.4537524 C248.370416,15.5058423 247.256554,16.4711255 247.256554,18.1041065 C247.256554,19.7891774 248.270057,20.9578355 249.639152,21.4747467 C250.397669,21.7780645 251.111581,21.8299051 252.127809,21.8299051 C252.430373,21.8299051 252.733185,21.8299051 252.939355,21.7780645 C253.039714,22.2899911 252.988171,23.001554 252.988171,23.5645736 C252.988171,26.0648888 251.515991,28.5624624 248.779038,28.5624624 C245.939001,28.5624624 244.264615,25.8069316 244.264615,22.6461464 C244.264615,20.2502602 244.974315,18.2606254 246.141206,16.8821123 C246.60137,16.3751704 246.953742,16.0673665 246.953742,15.6017974 C246.953742,15.3523142 246.60137,15.300972 246.293107,15.300972 C244.371913,15.300972 242.237362,16.164817 240.766668,16.929716 C238.841013,17.9535692 236.5615,19.6368954 234.68367,21.3189755 C233.770279,19.2799924 232.656418,17.4907417 232.094655,16.1144717 C231.889724,15.5526983 231.743274,14.8944714 231.331926,14.8944714 C230.984758,14.8944714 230.831369,15.2521222 230.576383,15.9594482 C229.664479,18.6643845 224.794462,26.5725784 223.730656,27.6425398 C223.631536,27.7953203 223.476909,27.9468545 223.42388,27.9468545 C223.327733,27.9468545 223.270492,27.8992508 223.270492,27.5906992 L223.270492,18.6643845 C223.270492,16.265009 222.311257,15.300972 220.992465,15.300972 C219.871417,15.300972 218.917882,15.7595625 217.996313,17.1871747 C216.328866,19.7358413 214.298887,23.4643815 213.332715,25.2965005 C213.183291,25.6020613 213.03139,25.7087335 212.982821,25.7087335 C212.931278,25.7087335 212.876762,25.4998754 212.876762,25.1955607 L212.876762,18.6643845 C212.876762,16.265009 211.916041,15.300972 210.594523,15.300972 C209.485865,15.300972 208.415121,15.7092173 207.555007,17.1871747 C205.421943,20.8100397 201.872206,26.3706989 201.216775,27.2863845 C201.116663,27.4376695 201.014817,27.5428463 200.911733,27.5906992 C200.813852,27.5906992 200.758344,27.4895102 200.758344,27.23579 L200.758344,18.6643845 C200.758344,16.265009 199.796384,15.300972 198.477344,15.300972 C196.651057,15.300972 195.636068,16.9837998 194.97791,18.0545089 C194.064767,19.5324664 192.849059,21.5235966 191.888338,23.3584571 C191.224729,24.587679 190.669905,25.7087335 190.470426,25.7087335 C190.36858,25.7087335 190.36858,25.2444106 190.36858,24.3765779 L190.36858,17.5468193 C193.557272,13.9745488 195.542647,9.59027401 195.542647,4.79725549 C195.542647,2.03698925 194.32124,0.507191133 192.440437,0.507191133 C188.938278,0.507191133 186.255593,6.0202466 186.255593,12.5461889 L186.255593,17.8516325 C184.631511,18.8719964 183.110266,19.3774429 181.232437,19.7358413 C180.27568,16.8821123 178.244462,15.4026595 176.627319,15.4537524 C175.051805,15.5058423 173.937696,16.4711255 173.937696,18.1041065 C173.937696,20.8100397 176.574289,21.9315926 178.899894,21.9315926 L179.564742,21.9315926 C179.662623,22.4412761 179.662623,23.001554 179.662623,23.5645736 C179.662623,26.0648888 178.197133,28.5624624 175.455967,28.5624624 C172.618904,28.5624624 170.945757,25.8069316 170.945757,22.6461464 C170.945757,20.2502602 171.659669,18.2606254 172.822348,16.8821123 C173.276813,16.3751704 173.62968,15.9123429 173.62968,15.6017974 C173.62968,15.3523142 173.276813,15.300972 172.974497,15.300972 C171.044877,15.300972 166.786927,17.9037224 161.714706,23.001554 C161.260241,18.9208462 160.75002,14.9455644 160.75002,11.0697269 C160.75002,6.73380346 161.611621,3.05909777 161.812339,1.98913633 C161.914185,1.32816784 161.968701,0.919174889 161.968701,0.611620167 C161.968701,0.199885646 161.76501,0 161.205725,0 C157.102898,0 148.078017,6.57877993 148.078017,16.4177894 C148.078017,20.4501459 148.939618,23.3108534 150.462102,25.8069316 C149.900091,25.7087335 149.448599,25.7087335 149.044189,25.7087335 C147.422585,25.7087335 145.896136,26.1127417 144.936902,26.3158674 L144.936902,25.2965005 C144.936902,23.1019953 144.426682,20.0927444 143.512051,19.0738759 C143.408719,18.9709423 143.25533,18.9208462 143.107641,18.9208462 C142.701993,18.9208462 142.194498,19.1257165 141.640912,19.4322743 C141.030333,19.7358413 140.419753,20.0463868 140.419753,20.2502602 C140.419753,20.3472122 140.419753,20.4501459 140.570168,20.7056107 C140.923035,21.2187834 141.894907,22.2354088 142.247527,24.634535 C140.514413,22.8986204 138.542915,22.1349675 135.959598,22.1349675 C132.915869,22.1349675 132,23.5112375 132,24.891246 C132,27.5428463 135.50092,28.8640355 139.914984,28.8640355 C140.727769,28.8640355 141.640912,28.7152429 142.549843,28.5091264 C142.549843,29.3266138 142.655902,30.0404199 142.655902,30.6532862 C142.655902,31.5226143 142.803838,32.1815889 143.361389,32.1815889 C144.225716,32.1815889 144.733458,30.4484159 144.829605,27.9468545 C146.400657,27.5428463 148.026474,27.1839493 149.398296,27.1839493 C150.054966,27.1839493 150.869485,27.2863845 151.682022,27.4376695 Z M141.685516,26.9287337 C140.829615,27.0309197 140.319146,27.0309197 139.404764,27.0309197 C137.431779,27.0309197 135.959598,26.2612852 135.959598,25.1464616 C135.959598,24.4314093 136.312961,24.0196748 137.323738,24.0196748 C138.953024,24.0196748 140.267604,25.1464616 141.685516,26.9287337 Z" id="Fill-4"></path>
            </g>
        </g>
    </g>
</svg>
