<svg width="277px" height="69px" viewBox="0 0 277 69" version="1.1" xmlns="http://www.w3.org/2000/svg" xmlns:xlink="http://www.w3.org/1999/xlink">
    <desc>Johnson &amp; Johnson Medical Devices Companies</desc>
    <g id="SYMBOLS" stroke="none" stroke-width="1" fill="none" fill-rule="evenodd">
        <g id="Organism/Navigation/Top_Nav" transform="translate(-71.000000, -41.000000)">
            <g id="Atom/Logo/JnJ_MDC-Horizontal" transform="translate(72.000000, 41.000000)">
                <path d="M98.8988537,18.4663253 C98.8988537,18.0043324 99.2056192,17.7532493 99.5920781,17.7532493 C100.247093,17.7532493 101.23835,18.4663253 101.792929,19.8868977 C101.594241,19.8868977 101.294026,19.9505054 101.093155,19.9505054 C99.9010269,19.9505054 98.8988537,19.3679926 98.8988537,18.4663253 Z M26.7729498,18.4663253 C26.7729498,18.0043324 27.0666149,17.7532493 27.4716326,17.7532493 C28.108089,17.7532493 29.057861,18.4663253 29.6102572,19.8868977 C27.7685728,19.8868977 26.7729498,19.4784692 26.7729498,18.4663253 Z M40.6843803,11.1224235 C40.6843803,3.51962715 42.1319639,2.3523697 42.5828326,2.3523697 C43.3830428,2.3523697 43.4769283,2.86123146 43.4769283,5.77602731 C43.4769283,8.77228568 42.2302161,12.6925299 40.6843803,14.845149 L40.6843803,11.1224235 Z M91.3257866,18.6158593 C90.4644417,19.8400289 89.7712173,21.5752921 89.7712173,23.8127215 C89.7712173,28.0967573 92.1598393,32.1843902 96.8028052,32.1843902 C101.294026,32.1843902 104.435915,28.5565183 104.435915,23.5047263 C104.435915,22.0350532 104.386789,21.8308389 104.291812,21.2248917 C105.332194,20.759551 106.237207,20.046475 106.934798,19.4784692 C107.533045,19.0198241 107.976272,18.7620454 108.334347,18.7620454 C108.779758,18.7620454 108.977354,19.1213732 108.977354,19.7842326 L108.977354,29.7873835 C108.977354,31.4177498 109.481716,32.1843902 110.722969,32.1843902 C111.867062,32.1843902 112.672731,31.3653013 113.118141,30.3977944 C114.769871,26.8792832 117.15631,22.186819 118.201059,20.403571 C118.451057,19.9962584 118.656295,19.6837994 118.80149,19.6837994 C119.001269,19.6837994 119.10498,19.8400289 119.10498,20.4961927 L119.10498,28.4650125 C119.10498,30.7024419 120.101695,32.1843902 122.291629,32.1843902 C124.58964,32.1843902 125.729367,29.9335696 127.739172,26.4697387 C127.835241,26.2599449 127.88,26.1126428 127.88,25.9631088 C127.88,25.5033478 127.490266,25.2444532 127.088523,25.2444532 C126.634379,25.2444532 126.38329,25.7064461 124.892039,27.3836812 C124.58964,27.7028358 124.295975,28.144742 123.743579,28.144742 C123.544891,28.144742 123.393146,27.9003545 123.393146,27.5923592 L123.393146,18.6593803 C123.393146,16.2612577 122.345122,15.2948667 120.995791,15.2948667 C119.903007,15.2948667 119.001269,15.752396 118.052589,17.1841276 C116.357191,19.7384797 114.613759,23.3618879 113.663987,25.187541 C113.560277,25.4029145 113.41399,25.7064461 113.321196,25.7064461 C113.215302,25.7064461 113.170543,25.5513325 113.170543,25.187541 L113.170543,18.6593803 C113.170543,16.7779309 112.672731,15.2948667 110.722969,15.2948667 C108.676047,15.2948667 107.630206,16.7232506 106.133496,17.7934226 C105.189183,18.5143101 104.338755,19.0198241 103.69684,19.3244716 C102.692483,16.7232506 100.847524,15.4086911 99.3038714,15.4488644 C97.7493021,15.5035447 96.6554268,16.4755153 96.6554268,18.1081134 C96.6554268,19.7842326 97.6543249,20.9514901 98.9992894,21.4703952 C99.7416399,21.7750427 100.442506,21.8308389 101.446863,21.8308389 C101.745986,21.8308389 102.044018,21.8308389 102.236156,21.7750427 C102.34205,22.2805566 102.295107,23.0059078 102.295107,23.5649862 C102.295107,26.0668899 100.847524,28.5565183 98.1554115,28.5565183 C95.3552216,28.5565183 93.7155003,25.8057634 93.7155003,22.6454641 C93.7155003,20.2439937 94.4109081,18.2576474 95.5539096,16.8872916 C96.0102368,16.3728502 96.3552115,16.063739 96.3552115,15.5961665 C96.3552115,15.3562426 96.0102368,15.2948667 95.7089298,15.2948667 C93.8093858,15.2948667 91.7198874,16.1664041 90.2766707,16.925233 C88.3694848,17.9463043 86.1315163,19.6380465 84.2821902,21.3186294 C83.3870028,19.274255 82.2887607,17.4887751 81.7363645,16.1106079 C81.5431351,15.5470658 81.3946649,14.8931338 80.9929223,14.8931338 C80.6381224,14.8931338 80.4852856,15.2524616 80.2407466,15.9543784 C79.3466508,18.6593803 74.5552149,26.5712879 73.5082823,27.6425758 C73.41003,27.7898779 73.264835,27.9494552 73.2157088,27.9494552 C73.108723,27.9494552 73.0508634,27.9003545 73.0508634,27.5923592 L73.0508634,18.6593803 C73.0508634,16.2612577 72.1054581,15.2948667 70.819445,15.2948667 C69.7157444,15.2948667 68.7703392,15.752396 67.8751518,17.1841276 C66.2277886,19.7384797 64.2256256,23.4600893 63.2802204,25.292438 C63.1284752,25.6082447 62.9800051,25.7064461 62.9265122,25.7064461 C62.877386,25.7064461 62.8359017,25.5033478 62.8359017,25.187541 L62.8359017,18.6593803 C62.8359017,16.2612577 61.8861297,15.2948667 60.5837412,15.2948667 C59.4854991,15.2948667 58.444025,15.7122227 57.593597,17.1841276 C55.5040986,20.8075358 52.011776,26.3670737 51.3622193,27.2810161 C51.260692,27.4383616 51.161348,27.5421426 51.0630957,27.5923592 C50.9637518,27.5923592 50.9058921,27.4874623 50.9058921,27.2319155 L50.9058921,18.6593803 C50.9058921,16.2612577 49.9604869,15.2948667 48.6679236,15.2948667 C46.8720903,15.2948667 45.8786506,16.9866089 45.2225438,18.0534331 C44.3229896,19.5320336 43.1297703,21.5239596 42.1843651,23.3618879 C41.5293499,24.5894053 40.9835039,25.7064461 40.7815409,25.7064461 C40.6843803,25.7064461 40.6843803,25.2444532 40.6843803,24.3762636 L40.6843803,17.5456873 C43.8251781,13.969148 45.7705731,9.59137456 45.7705731,4.79512932 C45.7705731,2.03656295 44.5740788,0.513325456 42.7345778,0.513325456 C39.2848312,0.513325456 36.6494869,6.02041486 36.6494869,12.5429959 L36.6494869,17.8481029 C35.0501582,18.8691742 33.5523568,19.3679926 31.7019389,19.7384797 C30.755442,16.8872916 28.7587374,15.4086911 27.1703256,15.4488644 C25.6255815,15.5035447 24.5229727,16.4755153 24.5229727,18.1081134 C24.5229727,20.8075358 27.1201078,21.9301562 29.4093858,21.9301562 L30.0567592,21.9301562 C30.1550114,22.4468295 30.1550114,23.0059078 30.1550114,23.5649862 C30.1550114,26.0668899 28.7085196,28.5565183 26.0218657,28.5565183 C23.2315011,28.5565183 21.5786795,25.8057634 21.5786795,22.6454641 C21.5786795,20.2439937 22.2729955,18.2576474 23.4203638,16.8872916 C23.8723243,16.3728502 24.2271241,15.915321 24.2271241,15.5961665 C24.2271241,15.3562426 23.8723243,15.2948667 23.572109,15.2948667 C21.67584,15.2948667 17.4913848,17.9072469 12.4979858,23.0059078 C12.0580339,18.9260864 11.5558556,14.9411186 11.5558556,11.0655114 C11.5558556,6.73237495 12.3953668,3.05205461 12.5918713,1.99304188 C12.692307,1.33353026 12.7534417,0.920638046 12.7534417,0.620454247 C12.7534417,0.208677957 12.5438369,0 12.004541,0 C7.96200573,0 -0.92,6.58618879 -0.92,16.4264146 C-0.92,23.4031771 1.58106626,26.7743862 5.91071655,31.1064067 C3.28192233,35.4440068 1.17386517,40.5884206 1.17386517,45.1849153 C1.17386517,48.4936327 1.93040769,51 4.31575461,51 C9.30587852,51 13.0460152,40.3964816 13.0460152,32.5370224 C13.0460152,30.1969279 12.9521296,27.8467901 12.7534417,25.5033478 C14.5929427,23.5047263 17.4378919,20.8075358 18.1332997,20.5542208 C17.8352678,21.6277406 17.6387632,22.7525929 17.6387632,23.8127215 C17.6387632,28.0967573 20.0361187,32.1843902 24.6703511,32.1843902 C29.0141934,32.1843902 32.3023695,28.5565183 32.3023695,23.5047263 C32.3023695,22.8530261 32.2532434,22.2805566 32.2041172,21.6712617 C33.7958041,21.3699619 35.2564879,20.9514901 36.6494869,20.0978075 L36.6494869,30.3453459 C36.6494869,31.6654851 37.5413992,32.1843902 38.3885522,32.1843902 C39.5435622,32.1843902 40.1418094,31.3653013 40.9835039,29.4871997 C41.6865535,27.9494552 43.577364,24.4342917 44.7225489,22.3363529 C45.6253781,20.7026388 46.1264647,19.6380465 46.5271157,19.6380465 C46.6210012,19.6380465 46.727987,19.8868977 46.727987,20.4961927 L46.727987,29.2216096 C46.727987,31.5706315 47.9255731,32.1843902 48.960497,32.1843902 C49.9604869,32.1843902 50.6111353,31.62308 51.260692,30.7024419 C53.8578271,26.926152 56.6056158,22.4468295 57.692941,20.4961927 C57.8992707,20.1524879 58.1438097,19.8868977 58.3457727,19.8868977 C58.5400939,19.8868977 58.6405296,19.9962584 58.6405296,20.6501904 L58.6405296,29.7873835 C58.6405296,31.4177498 59.1394328,32.1843902 60.3937868,32.1843902 C61.5346049,32.1843902 62.2780472,31.3653013 62.7256409,30.3977944 C64.3828292,26.8792832 66.8216691,22.2336878 67.8751518,20.403571 C68.1207825,19.9962584 68.3718716,19.6380465 68.5192501,19.6380465 C68.7244881,19.6380465 68.7703392,19.8868977 68.7703392,20.5542208 L68.7703392,29.2216096 C68.7703392,31.5706315 69.9668336,32.1843902 71.0224997,32.1843902 C72.4089485,32.1843902 73.3150528,31.161087 74.2124236,29.9927137 C75.8477781,27.7898779 78.2451337,23.8785611 79.6927172,21.3699619 C80.1970789,22.186819 80.7407415,23.1576736 81.1970687,24.2244978 C79.9962076,25.7064461 78.7964381,27.3836812 78.7964381,29.1691611 C78.7964381,31.058422 80.0955515,32.1843902 81.4416077,32.1843902 C83.7319774,32.1843902 85.8291177,29.9335696 85.8291177,26.8268347 C85.8291177,25.6082447 85.4819596,24.3282788 85.0354576,23.1096889 C87.0692797,21.0641985 89.5190365,19.0756203 91.3257866,18.6158593 Z M9.15194996,29.7338191 C9.55478429,32.4343574 9.90740079,35.0913746 9.90740079,37.1792701 C9.90740079,42.0681371 8.31134715,47.7827885 5.56792528,47.7370356 C4.50789239,47.7370356 3.61925514,46.6512406 3.57122069,44.7776027 C3.47187673,38.6634502 6.31355088,33.4587764 9.15194996,29.7338191 Z M81.986362,26.2599449 C82.2887607,27.1370618 82.4426892,27.8467901 82.4426892,28.5565183 C82.4426892,29.3756072 82.1391989,30.1969279 81.5900778,30.1969279 C81.1970687,30.1969279 80.7942344,29.7338191 80.7942344,29.0196271 C80.7942344,28.2518708 81.4416077,27.0265853 81.986362,26.2599449 Z M10.9543334,1.93724563 C10.9543334,2.24858868 10.2523754,3.67362479 9.35827974,6.22574504 C8.40959943,8.87383484 7.50567849,12.6423132 7.50567849,17.1841276 C7.50567849,19.8868977 8.16069367,23.4600893 8.71527318,27.0812656 L7.11376108,29.2818695 C4.57011883,26.1126428 2.9729735,22.5472627 2.9729735,16.4264146 C2.9729735,7.75790994 8.11375091,1.74530655 10.7512787,1.74530655 C10.9084823,1.74530655 10.9543334,1.79105947 10.9543334,1.93724563 Z" id="Fill-1" fill="#CA001B"></path>
                <path d="M245.951815,18.4663253 C245.951815,18.0043324 246.243712,17.7532493 246.65083,17.7532493 C247.29388,17.7532493 248.302349,18.4663253 248.851027,19.8868977 C248.655698,19.8868977 248.35612,19.9505054 248.145428,19.9505054 C246.952603,19.9505054 245.951815,19.3679926 245.951815,18.4663253 Z M173.435321,18.4663253 C173.435321,18.0043324 173.743678,17.7532493 174.137628,17.7532493 C174.791652,17.7532493 175.754032,18.4663253 176.29832,19.8868977 C174.440498,19.8868977 173.435321,19.4784692 173.435321,18.4663253 Z M187.430984,11.1224235 C187.430984,3.51962715 188.875103,2.3523697 189.333797,2.3523697 C190.132671,2.3523697 190.235823,2.86123146 190.235823,5.77602731 C190.235823,8.77228568 188.976059,12.6925299 187.430984,14.845149 L187.430984,11.1224235 Z M155.742671,29.7338191 C156.131134,32.4343574 156.496553,35.0913746 156.496553,37.1792701 C156.496553,42.0681371 154.895513,47.7827885 152.130179,47.7370356 C151.076718,47.7370356 150.17579,46.6512406 150.124214,44.7776027 C150.02216,38.6634502 152.882964,33.4587764 155.742671,29.7338191 Z M228.954888,26.2599449 C229.258855,27.1370618 229.400414,27.8467901 229.400414,28.5565183 C229.400414,29.3756072 229.100836,30.1969279 228.547769,30.1969279 C228.152721,30.1969279 227.737921,29.7338191 227.737921,29.0196271 C227.737921,28.2518708 228.400724,27.0265853 228.954888,26.2599449 Z M157.537943,1.93724563 C157.537943,2.24858868 156.84222,3.67362479 155.936902,6.22574504 C154.987691,8.87383484 154.081276,12.6423132 154.081276,17.1841276 C154.081276,19.8868977 154.74737,23.4600893 155.293853,27.0812656 L153.686228,29.2818695 C151.133781,26.1126428 149.520669,22.5472627 149.520669,16.4264146 C149.520669,7.75790994 154.694697,1.74530655 157.350295,1.74530655 C157.496244,1.74530655 157.537943,1.79105947 157.537943,1.93724563 Z M149.178294,27.4383616 C150.072639,28.6625312 151.176577,29.8331364 152.485722,31.1064067 C149.823539,35.4440068 147.718813,40.5884206 147.718813,45.1849153 C147.718813,48.4936327 148.478182,51 150.885778,51 C155.890814,51 159.651448,40.3964816 159.651448,32.5370224 C159.651448,30.1969279 159.555978,27.8467901 159.35187,25.5033478 C161.207497,23.5047263 164.06062,20.8075358 164.767316,20.5542208 C164.467738,21.6277406 164.262533,22.7525929 164.262533,23.8127215 C164.262533,28.0967573 166.671227,32.1843902 171.337179,32.1843902 C175.695872,32.1843902 179.007689,28.5565183 179.007689,23.5047263 C179.007689,22.8530261 178.958308,22.2805566 178.90344,21.6712617 C180.514357,21.3699619 181.973839,20.9514901 183.368577,20.0978075 L183.368577,30.3453459 C183.368577,31.6654851 184.269505,32.1843902 185.115565,32.1843902 C186.279859,32.1843902 186.884501,31.3653013 187.732756,29.4871997 C188.430674,27.9494552 190.341169,24.4342917 191.498878,22.3363529 C192.396514,20.7026388 192.89581,19.6380465 193.311708,19.6380465 C193.403886,19.6380465 193.500453,19.8868977 193.500453,20.4961927 L193.500453,29.2216096 C193.500453,31.5706315 194.69657,32.1843902 195.752225,32.1843902 C196.760694,32.1843902 197.404841,31.62308 198.067643,30.7024419 C200.671666,26.926152 203.432611,22.4468295 204.528868,20.4961927 C204.728587,20.1524879 204.98866,19.8868977 205.178502,19.8868977 C205.373831,19.8868977 205.485762,19.9962584 205.485762,20.6501904 L205.485762,29.7873835 C205.485762,31.4177498 205.982863,32.1843902 207.231653,32.1843902 C208.389362,32.1843902 209.137758,31.3653013 209.592063,30.3977944 C211.250166,26.8792832 213.704949,22.2336878 214.757312,20.403571 C215.009703,19.9962584 215.263192,19.6380465 215.415725,19.6380465 C215.613249,19.6380465 215.668116,19.8868977 215.668116,20.5542208 L215.668116,29.2216096 C215.668116,31.5706315 216.857649,32.1843902 217.913304,32.1843902 C219.326697,32.1843902 220.230917,31.161087 221.124164,29.9927137 C222.78117,27.7898779 225.193156,23.8785611 226.644956,21.3699619 C227.143155,22.186819 227.700611,23.1576736 228.152721,24.2244978 C226.93795,25.7064461 225.746222,27.3836812 225.746222,29.1691611 C225.746222,31.058422 227.034517,32.1843902 228.400724,32.1843902 C230.702974,32.1843902 232.808798,29.9335696 232.808798,26.8268347 C232.808798,25.6082447 232.454352,24.3282788 232.008826,23.1096889 C234.059782,21.0641985 236.517857,19.0756203 238.324103,18.6158593 C237.469263,19.8400289 236.769151,21.5752921 236.769151,23.8127215 C236.769151,28.0967573 239.180039,32.1843902 243.841602,32.1843902 C248.35612,32.1843902 251.505528,28.5565183 251.505528,23.5047263 C251.505528,22.0350532 251.460536,21.8308389 251.365066,21.2248917 C252.406456,20.759551 253.318358,20.046475 254.027249,19.4784692 C254.613237,19.0198241 255.073028,18.7620454 255.42089,18.7620454 C255.871902,18.7620454 256.088081,19.1213732 256.088081,19.7842326 L256.088081,29.7873835 C256.088081,31.4177498 256.582988,32.1843902 257.830681,32.1843902 C258.984,32.1843902 259.789459,31.3653013 260.241569,30.3977944 C261.888699,26.8792832 264.297392,22.186819 265.347561,20.403571 C265.597758,19.9962584 265.80406,19.6837994 265.953301,19.6837994 C266.156311,19.6837994 266.258365,19.8400289 266.258365,20.4961927 L266.258365,28.4650125 C266.258365,30.7024419 267.252569,32.1843902 269.459349,32.1843902 C271.776962,32.1843902 272.924795,29.9335696 274.934052,26.4697387 C275.030619,26.2599449 275.08,26.1126428 275.08,25.9631088 C275.08,25.5033478 274.676173,25.2444532 274.276736,25.2444532 C273.826821,25.2444532 273.572235,25.7064461 272.071053,27.3836812 C271.776962,27.7028358 271.471898,28.144742 270.921025,28.144742 C270.713625,28.144742 270.570969,27.9003545 270.570969,27.5923592 L270.570969,18.6593803 C270.570969,16.2612577 269.507633,15.2948667 268.152399,15.2948667 C267.060531,15.2948667 266.156311,15.752396 265.200515,17.1841276 C263.493031,19.7384797 261.746042,23.3618879 260.793538,25.187541 C260.68929,25.4029145 260.542244,25.7064461 260.434703,25.7064461 C260.326065,25.7064461 260.29095,25.5513325 260.29095,25.187541 L260.29095,18.6593803 C260.29095,16.7779309 259.789459,15.2948667 257.830681,15.2948667 C255.77314,15.2948667 254.724069,16.7232506 253.222888,17.7934226 C252.257216,18.5143101 251.412253,19.0198241 250.757132,19.3244716 C249.761831,16.7232506 247.89962,15.4086911 246.35235,15.4488644 C244.788619,15.5035447 243.697849,16.4755153 243.697849,18.1081134 C243.697849,19.7842326 244.696442,20.9514901 246.043993,21.4703952 C246.794584,21.7750427 247.500183,21.8308389 248.513041,21.8308389 C248.806035,21.8308389 249.097932,21.8308389 249.309721,21.7750427 C249.411775,22.2805566 249.360199,23.0059078 249.360199,23.5649862 C249.360199,26.0668899 247.89962,28.5565183 245.189154,28.5565183 C242.383218,28.5565183 240.736088,25.8057634 240.736088,22.6454641 C240.736088,20.2439937 241.432909,18.2576474 242.580742,16.8872916 C243.037241,16.3728502 243.391687,16.063739 243.391687,15.5961665 C243.391687,15.3562426 243.037241,15.2948667 242.737663,15.2948667 C240.840337,15.2948667 238.730124,16.1664041 237.273934,16.925233 C235.366731,17.9463043 233.111667,19.6380465 231.258235,21.3186294 C230.358404,19.274255 229.258855,17.4887751 228.695912,16.1106079 C228.492901,15.5470658 228.357927,14.8931338 227.940932,14.8931338 C227.59307,14.8931338 227.440538,15.2524616 227.192536,15.9543784 C226.288316,18.6593803 221.479707,26.5712879 220.426247,27.6425758 C220.326387,27.7898779 220.172758,27.9494552 220.122279,27.9494552 C220.029004,27.9494552 219.971942,27.9003545 219.971942,27.5923592 L219.971942,18.6593803 C219.971942,16.2612577 219.027119,15.2948667 217.710294,15.2948667 C216.607452,15.2948667 215.668116,15.752396 214.757312,17.1841276 C213.100306,19.7384797 211.094342,23.4600893 210.14074,25.292438 C209.994792,25.6082447 209.851039,25.7064461 209.801658,25.7064461 C209.744595,25.7064461 209.695214,25.5033478 209.695214,25.187541 L209.695214,18.6593803 C209.695214,16.2612577 208.7471,15.2948667 207.442345,15.2948667 C206.334017,15.2948667 205.275069,15.7122227 204.433398,17.1841276 C202.319893,20.8075358 198.816039,26.3670737 198.157627,27.2810161 C198.067643,27.4383616 197.960103,27.5421426 197.853659,27.5923592 C197.766968,27.5923592 197.707711,27.4874623 197.707711,27.2319155 L197.707711,18.6593803 C197.707711,16.2612577 196.760694,15.2948667 195.450452,15.2948667 C193.639817,15.2948667 192.643419,16.9866089 191.986103,18.0534331 C191.086272,19.5320336 189.891253,21.5239596 188.931068,23.3618879 C188.283628,24.5894053 187.732756,25.7064461 187.530843,25.7064461 C187.430984,25.7064461 187.430984,25.2444532 187.430984,24.3762636 L187.430984,17.5456873 C190.59356,13.969148 192.541365,9.59137456 192.541365,4.79512932 C192.541365,2.03656295 191.340859,0.513325456 189.48194,0.513325456 C186.02198,0.513325456 183.368577,6.02041486 183.368577,12.5429959 L183.368577,17.8481029 C181.759854,18.8691742 180.254284,19.3679926 178.400852,19.7384797 C177.453834,16.8872916 175.44348,15.4086911 173.849024,15.4488644 C172.286391,15.5035447 171.182452,16.4755153 171.182452,18.1081134 C171.182452,20.8075358 173.786475,21.9301562 176.096407,21.9301562 L176.752625,21.9301562 C176.844803,22.4468295 176.844803,23.0059078 176.844803,23.5649862 C176.844803,26.0668899 175.398489,28.5565183 172.686925,28.5565183 C169.8766,28.5565183 168.230568,25.8057634 168.230568,22.6454641 C168.230568,20.2439937 168.931777,18.2576474 170.076318,16.8872916 C170.526234,16.3728502 170.880679,15.915321 170.880679,15.5961665 C170.880679,15.3562426 170.526234,15.2948667 170.231045,15.2948667 C168.321648,15.2948667 164.112195,17.9072469 159.093992,23.0059078 C158.652855,18.9260864 158.141488,14.9411186 158.141488,11.0655114 C158.141488,6.73237495 158.996327,3.05205461 159.199338,1.99304188 C159.297003,1.33353026 159.35187,0.920638046 159.35187,0.620454247 C159.35187,0.208677957 159.145568,0 158.607864,0 C154.545457,0 145.612989,6.58618879 145.612989,16.4264146 C145.612989,20.4459761 146.468926,23.3127872 147.973399,25.8057634 C147.410456,25.7064461 146.971514,25.7064461 146.558909,25.7064461 C144.958965,25.7064461 143.452297,26.1126428 142.514059,26.317973 L142.514059,25.292438 C142.514059,23.1096889 142.005984,20.0978075 141.101763,19.0756203 C140.994223,18.9707234 140.844982,18.9260864 140.702326,18.9260864 C140.293013,18.9260864 139.797009,19.1213732 139.246137,19.4316004 C138.642591,19.7384797 138.039046,20.046475 138.039046,20.2439937 C138.039046,20.3455429 138.039046,20.4459761 138.189384,20.7026388 C138.544927,21.2248917 139.497431,22.2336878 139.842,24.6351582 C138.135614,22.9021268 136.190004,22.1321386 133.640849,22.1321386 C130.627512,22.1321386 129.72,23.5047263 129.72,24.8895891 C129.72,27.5421426 133.17996,28.8656295 137.548529,28.8656295 C138.346306,28.8656295 139.246137,28.7127478 140.147065,28.5040698 C140.147065,29.3198109 140.250216,30.0451621 140.250216,30.6533412 C140.250216,31.5204149 140.39397,32.1843902 140.952523,32.1843902 C141.800778,32.1843902 142.305562,30.4468951 142.403226,27.9494552 C143.957081,27.5421426 145.563608,27.1883944 146.92323,27.1883944 C147.569572,27.1883944 148.380518,27.2810161 149.178294,27.4383616 Z M139.29881,26.926152 C138.457139,27.0265853 137.940284,27.0265853 137.047038,27.0265853 C135.087162,27.0265853 133.640849,26.2599449 133.640849,25.1473677 C133.640849,24.4342917 133.987613,24.0191677 134.989498,24.0191677 C136.597122,24.0191677 137.895293,25.1473677 139.29881,26.926152 Z" id="Fill-2" fill="#CA001B"></path>
                <path d="M26.7536,68 L24.472,68 L24.472,60.8977778 L21.7488,68 L19.86464,68 L17.14144,60.9884444 L17.14144,68 L14.93344,68 L14.93344,57.2862222 L17.96576,57.2862222 L20.83616,64.5244444 L23.55936,57.2862222 L26.7536,57.2862222 L26.7536,68 Z M35.69048,68 L29.06648,68 L29.06648,57.2862222 L35.67576,57.2862222 L35.67576,59.5377778 L31.39224,59.5377778 L31.39224,61.5777778 L35.27832,61.5777778 L35.27832,63.6782222 L31.39224,63.6782222 L31.39224,65.7333333 L35.69048,65.7333333 L35.69048,68 Z M40.02,65.7484444 L41.37424,65.7484444 C42.2280043,65.7484444 42.9271973,65.4865211 43.47184,64.9626667 C44.0164827,64.4388122 44.2888,63.6681532 44.2888,62.6506667 C44.2888,61.623106 44.0164827,60.84741 43.47184,60.3235556 C42.9271973,59.7997011 42.2280043,59.5377778 41.37424,59.5377778 L40.02,59.5377778 L40.02,65.7484444 Z M41.46256,68 L37.69424,68 L37.69424,57.2862222 L41.47728,57.2862222 C43.0572346,57.2862222 44.3255952,57.7697729 45.2824,58.7368889 C46.2392048,59.7040048 46.7176,61.0085844 46.7176,62.6506667 C46.7176,64.292749 46.2392048,65.59481 45.2824,66.5568889 C44.3255952,67.5189678 43.052328,68 41.46256,68 Z M50.78216,68 L48.42696,68 L48.42696,57.2862222 L50.78216,57.2862222 L50.78216,68 Z M57.89376,68.2266667 C56.3628723,68.2266667 55.0773385,67.7103755 54.03712,66.6777778 C52.9969015,65.64518 52.4768,64.3078601 52.4768,62.6657778 C52.4768,61.0337696 53.0018081,59.6914127 54.05184,58.6386667 C55.1018719,57.5859207 56.3726859,57.0595556 57.86432,57.0595556 C58.6101371,57.0595556 59.284797,57.1728878 59.88832,57.3995556 C60.491843,57.6262234 60.9800515,57.9259241 61.35296,58.2986667 C61.7258685,58.6714093 62.0251722,59.0542203 62.25088,59.4471111 C62.4765878,59.840002 62.6335996,60.2479979 62.72192,60.6711111 L60.52864,61.3813333 C60.4795731,61.1697767 60.4010672,60.9607418 60.29312,60.7542222 C60.1851728,60.5477027 60.0330677,60.3361492 59.8368,60.1195556 C59.6405324,59.9029619 59.3706684,59.7266673 59.0272,59.5906667 C58.6837316,59.454666 58.2961088,59.3866667 57.86432,59.3866667 C57.0792494,59.3866667 56.3874163,59.6712564 55.7888,60.2404444 C55.1901837,60.8096325 54.89088,61.6180688 54.89088,62.6657778 C54.89088,63.6328937 55.1852771,64.4035527 55.77408,64.9777778 C56.3628829,65.5520029 57.0694359,65.8391111 57.89376,65.8391111 C58.6984574,65.8391111 59.3215978,65.6325947 59.7632,65.2195556 C60.2048022,64.8065165 60.4942926,64.3431137 60.63168,63.8293333 L62.8544,64.4791111 C62.7562662,64.8921502 62.5968011,65.3001461 62.376,65.7031111 C62.1551989,66.1060761 61.8558952,66.503998 61.47808,66.8968889 C61.1002648,67.2897797 60.5997898,67.6096284 59.97664,67.8564444 C59.3534902,68.1032605 58.6592038,68.2266667 57.89376,68.2266667 Z M70.98168,68 L70.23096,65.824 L66.19768,65.824 L65.44696,68 L63.00344,68 L66.93368,57.2862222 L69.62744,57.2862222 L73.51352,68 L70.98168,68 Z M68.24376,59.9457778 L66.96312,63.648 L69.49496,63.648 L68.24376,59.9457778 Z M81.67024,68 L74.84016,68 L74.84016,57.2862222 L77.16592,57.2862222 L77.16592,65.7182222 L81.67024,65.7182222 L81.67024,68 Z M89.21056,65.7484444 L90.5648,65.7484444 C91.4185643,65.7484444 92.1177573,65.4865211 92.6624,64.9626667 C93.2070427,64.4388122 93.47936,63.6681532 93.47936,62.6506667 C93.47936,61.623106 93.2070427,60.84741 92.6624,60.3235556 C92.1177573,59.7997011 91.4185643,59.5377778 90.5648,59.5377778 L89.21056,59.5377778 L89.21056,65.7484444 Z M90.65312,68 L86.8848,68 L86.8848,57.2862222 L90.66784,57.2862222 C92.2477946,57.2862222 93.5161552,57.7697729 94.47296,58.7368889 C95.4297648,59.7040048 95.90816,61.0085844 95.90816,62.6506667 C95.90816,64.292749 95.4297648,65.59481 94.47296,66.5568889 C93.5161552,67.5189678 92.242888,68 90.65312,68 Z M104.24152,68 L97.61752,68 L97.61752,57.2862222 L104.2268,57.2862222 L104.2268,59.5377778 L99.94328,59.5377778 L99.94328,61.5777778 L103.82936,61.5777778 L103.82936,63.6782222 L99.94328,63.6782222 L99.94328,65.7333333 L104.24152,65.7333333 L104.24152,68 Z M110.41104,64.8266667 L112.89872,57.2862222 L115.37168,57.2862222 L111.5592,68 L109.15984,68 L105.33264,57.2862222 L107.89392,57.2862222 L110.41104,64.8266667 Z M119.05352,68 L116.69832,68 L116.69832,57.2862222 L119.05352,57.2862222 L119.05352,68 Z M126.16512,68.2266667 C124.634232,68.2266667 123.348699,67.7103755 122.30848,66.6777778 C121.268261,65.64518 120.74816,64.3078601 120.74816,62.6657778 C120.74816,61.0337696 121.273168,59.6914127 122.3232,58.6386667 C123.373232,57.5859207 124.644046,57.0595556 126.13568,57.0595556 C126.881497,57.0595556 127.556157,57.1728878 128.15968,57.3995556 C128.763203,57.6262234 129.251411,57.9259241 129.62432,58.2986667 C129.997229,58.6714093 130.296532,59.0542203 130.52224,59.4471111 C130.747948,59.840002 130.90496,60.2479979 130.99328,60.6711111 L128.8,61.3813333 C128.750933,61.1697767 128.672427,60.9607418 128.56448,60.7542222 C128.456533,60.5477027 128.304428,60.3361492 128.10816,60.1195556 C127.911892,59.9029619 127.642028,59.7266673 127.29856,59.5906667 C126.955092,59.454666 126.567469,59.3866667 126.13568,59.3866667 C125.350609,59.3866667 124.658776,59.6712564 124.06016,60.2404444 C123.461544,60.8096325 123.16224,61.6180688 123.16224,62.6657778 C123.16224,63.6328937 123.456637,64.4035527 124.04544,64.9777778 C124.634243,65.5520029 125.340796,65.8391111 126.16512,65.8391111 C126.969817,65.8391111 127.592958,65.6325947 128.03456,65.2195556 C128.476162,64.8065165 128.765653,64.3431137 128.90304,63.8293333 L131.12576,64.4791111 C131.027626,64.8921502 130.868161,65.3001461 130.64736,65.7031111 C130.426559,66.1060761 130.127255,66.503998 129.74944,66.8968889 C129.371625,67.2897797 128.87115,67.6096284 128.248,67.8564444 C127.62485,68.1032605 126.930564,68.2266667 126.16512,68.2266667 Z M139.38552,68 L132.76152,68 L132.76152,57.2862222 L139.3708,57.2862222 L139.3708,59.5377778 L135.08728,59.5377778 L135.08728,61.5777778 L138.97336,61.5777778 L138.97336,63.6782222 L135.08728,63.6782222 L135.08728,65.7333333 L139.38552,65.7333333 L139.38552,68 Z M148.57264,59.9155556 L146.4824,60.52 C146.433333,60.1875539 146.271415,59.8802977 145.99664,59.5982222 C145.721865,59.3161467 145.304803,59.1751111 144.74544,59.1751111 C144.323465,59.1751111 143.980001,59.2884433 143.71504,59.5151111 C143.450079,59.7417789 143.3176,60.0112577 143.3176,60.3235556 C143.3176,60.8776324 143.661063,61.2201475 144.348,61.3511111 L145.7464,61.6231111 C146.708111,61.8044454 147.451464,62.1897748 147.97648,62.7791111 C148.501496,63.3684474 148.764,64.0559961 148.764,64.8417778 C148.764,65.7383749 148.41563,66.5266633 147.71888,67.2066667 C147.02213,67.8866701 146.084966,68.2266667 144.90736,68.2266667 C143.592367,68.2266667 142.574244,67.8765961 141.85296,67.1764444 C141.131676,66.4762928 140.72688,65.6829674 140.63856,64.7964444 L142.77296,64.2675556 C142.822027,64.8014842 143.025652,65.2422205 143.38384,65.5897778 C143.742028,65.9373351 144.259677,66.1111111 144.9368,66.1111111 C145.388216,66.1111111 145.746399,66.0078529 146.01136,65.8013333 C146.276321,65.5948138 146.4088,65.325335 146.4088,64.9928889 C146.4088,64.7208875 146.310668,64.4917046 146.1144,64.3053333 C145.918132,64.118962 145.643362,63.9905189 145.29008,63.92 L143.86224,63.648 C142.979036,63.4767399 142.284749,63.1090399 141.77936,62.5448889 C141.273971,61.9807379 141.02128,61.3007447 141.02128,60.5048889 C141.02128,59.5176247 141.389276,58.6965959 142.12528,58.0417778 C142.861284,57.3869597 143.739568,57.0595556 144.76016,57.0595556 C145.378403,57.0595556 145.930398,57.1477028 146.41616,57.324 C146.901922,57.5002972 147.287092,57.7345171 147.57168,58.0266667 C147.856268,58.3188163 148.079519,58.6210355 148.24144,58.9333333 C148.403361,59.2456312 148.51376,59.5730353 148.57264,59.9155556 Z M158.88032,68.2266667 C157.349432,68.2266667 156.063899,67.7103755 155.02368,66.6777778 C153.983461,65.64518 153.46336,64.3078601 153.46336,62.6657778 C153.46336,61.0337696 153.988368,59.6914127 155.0384,58.6386667 C156.088432,57.5859207 157.359246,57.0595556 158.85088,57.0595556 C159.596697,57.0595556 160.271357,57.1728878 160.87488,57.3995556 C161.478403,57.6262234 161.966611,57.9259241 162.33952,58.2986667 C162.712429,58.6714093 163.011732,59.0542203 163.23744,59.4471111 C163.463148,59.840002 163.62016,60.2479979 163.70848,60.6711111 L161.5152,61.3813333 C161.466133,61.1697767 161.387627,60.9607418 161.27968,60.7542222 C161.171733,60.5477027 161.019628,60.3361492 160.82336,60.1195556 C160.627092,59.9029619 160.357228,59.7266673 160.01376,59.5906667 C159.670292,59.454666 159.282669,59.3866667 158.85088,59.3866667 C158.065809,59.3866667 157.373976,59.6712564 156.77536,60.2404444 C156.176744,60.8096325 155.87744,61.6180688 155.87744,62.6657778 C155.87744,63.6328937 156.171837,64.4035527 156.76064,64.9777778 C157.349443,65.5520029 158.055996,65.8391111 158.88032,65.8391111 C159.685017,65.8391111 160.308158,65.6325947 160.74976,65.2195556 C161.191362,64.8065165 161.480853,64.3431137 161.61824,63.8293333 L163.84096,64.4791111 C163.742826,64.8921502 163.583361,65.3001461 163.36256,65.7031111 C163.141759,66.1060761 162.842455,66.503998 162.46464,66.8968889 C162.086825,67.2897797 161.58635,67.6096284 160.9632,67.8564444 C160.34005,68.1032605 159.645764,68.2266667 158.88032,68.2266667 Z M167.19896,62.6355556 C167.19896,63.6832645 167.500717,64.4841454 168.10424,65.0382222 C168.707763,65.5922991 169.411863,65.8693333 170.21656,65.8693333 C171.021257,65.8693333 171.722904,65.5922991 172.32152,65.0382222 C172.920136,64.4841454 173.21944,63.6832645 173.21944,62.6355556 C173.21944,61.5878466 172.920136,60.7844472 172.32152,60.2253333 C171.722904,59.6662194 171.021257,59.3866667 170.21656,59.3866667 C169.411863,59.3866667 168.707763,59.6662194 168.10424,60.2253333 C167.500717,60.7844472 167.19896,61.5878466 167.19896,62.6355556 Z M164.78488,62.6506667 C164.78488,60.9884361 165.312341,59.6410422 166.36728,58.6084444 C167.422219,57.5758467 168.705299,57.0595556 170.21656,57.0595556 C171.727821,57.0595556 173.008448,57.5783652 174.05848,58.616 C175.108512,59.6536348 175.63352,60.9985103 175.63352,62.6506667 C175.63352,64.3028231 175.108512,65.64518 174.05848,66.6777778 C173.008448,67.7103755 171.727821,68.2266667 170.21656,68.2266667 C168.705299,68.2266667 167.422219,67.7103755 166.36728,66.6777778 C165.312341,65.64518 164.78488,64.3028231 164.78488,62.6506667 Z M189.16304,68 L186.88144,68 L186.88144,60.8977778 L184.15824,68 L182.27408,68 L179.55088,60.9884444 L179.55088,68 L177.34288,68 L177.34288,57.2862222 L180.3752,57.2862222 L183.2456,64.5244444 L185.9688,57.2862222 L189.16304,57.2862222 L189.16304,68 Z M193.8164,62.0915556 L195.17064,62.0915556 C195.612242,62.0915556 195.970425,61.9681494 196.2452,61.7213333 C196.519975,61.4745173 196.65736,61.1445947 196.65736,60.7315556 C196.65736,60.3084423 196.522428,59.9734827 196.25256,59.7266667 C195.982692,59.4798506 195.622056,59.3564444 195.17064,59.3564444 L193.8164,59.3564444 L193.8164,62.0915556 Z M195.40616,64.1466667 L193.80168,64.1466667 L193.80168,68 L191.47592,68 L191.47592,57.2862222 L195.40616,57.2862222 C196.466005,57.2862222 197.327117,57.6085894 197.98952,58.2533333 C198.651923,58.8980773 198.98312,59.7191061 198.98312,60.7164444 C198.98312,61.733931 198.651923,62.5599968 197.98952,63.1946667 C197.327117,63.8293365 196.466005,64.1466667 195.40616,64.1466667 Z M206.71296,68 L205.96224,65.824 L201.92896,65.824 L201.17824,68 L198.73472,68 L202.66496,57.2862222 L205.35872,57.2862222 L209.2448,68 L206.71296,68 Z M203.97504,59.9457778 L202.6944,63.648 L205.22624,63.648 L203.97504,59.9457778 Z M219.63896,68 L217.18072,68 L212.88248,60.9582222 L212.88248,68 L210.57144,68 L210.57144,57.2862222 L213.39768,57.2862222 L217.3132,63.7991111 L217.3132,57.2862222 L219.63896,57.2862222 L219.63896,68 Z M224.29232,68 L221.93712,68 L221.93712,57.2862222 L224.29232,57.2862222 L224.29232,68 Z M233.21448,68 L226.59048,68 L226.59048,57.2862222 L233.19976,57.2862222 L233.19976,59.5377778 L228.91624,59.5377778 L228.91624,61.5777778 L232.80232,61.5777778 L232.80232,63.6782222 L228.91624,63.6782222 L228.91624,65.7333333 L233.21448,65.7333333 L233.21448,68 Z M242.4016,59.9155556 L240.31136,60.52 C240.262293,60.1875539 240.100375,59.8802977 239.8256,59.5982222 C239.550825,59.3161467 239.133763,59.1751111 238.5744,59.1751111 C238.152425,59.1751111 237.808961,59.2884433 237.544,59.5151111 C237.279039,59.7417789 237.14656,60.0112577 237.14656,60.3235556 C237.14656,60.8776324 237.490023,61.2201475 238.17696,61.3511111 L239.57536,61.6231111 C240.537071,61.8044454 241.280424,62.1897748 241.80544,62.7791111 C242.330456,63.3684474 242.59296,64.0559961 242.59296,64.8417778 C242.59296,65.7383749 242.24459,66.5266633 241.54784,67.2066667 C240.85109,67.8866701 239.913926,68.2266667 238.73632,68.2266667 C237.421327,68.2266667 236.403204,67.8765961 235.68192,67.1764444 C234.960636,66.4762928 234.55584,65.6829674 234.46752,64.7964444 L236.60192,64.2675556 C236.650987,64.8014842 236.854612,65.2422205 237.2128,65.5897778 C237.570988,65.9373351 238.088637,66.1111111 238.76576,66.1111111 C239.217176,66.1111111 239.575359,66.0078529 239.84032,65.8013333 C240.105281,65.5948138 240.23776,65.325335 240.23776,64.9928889 C240.23776,64.7208875 240.139628,64.4917046 239.94336,64.3053333 C239.747092,64.118962 239.472322,63.9905189 239.11904,63.92 L237.6912,63.648 C236.807996,63.4767399 236.113709,63.1090399 235.60832,62.5448889 C235.102931,61.9807379 234.85024,61.3007447 234.85024,60.5048889 C234.85024,59.5176247 235.218236,58.6965959 235.95424,58.0417778 C236.690244,57.3869597 237.568528,57.0595556 238.58912,57.0595556 C239.207363,57.0595556 239.759358,57.1477028 240.24512,57.324 C240.730882,57.5002972 241.116052,57.7345171 241.40064,58.0266667 C241.685228,58.3188163 241.908479,58.6210355 242.0704,58.9333333 C242.232321,59.2456312 242.34272,59.5730353 242.4016,59.9155556 Z" id="MEDICAL-DEVICES-COMP" fill="#888B8D"></path>
            </g>
        </g>
    </g>
</svg>
